<svg class="text-primary w-4" viewBox="0 0 20 14" fill="none" xmlns="http://www.w3.org/2000/svg"><path d="M0 7.4979V6.4979C0 6.22176 0.223858 5.9979 0.5 5.9979H16.67L12.22 1.5579C12.1253 1.46402 12.0721 1.33622 12.0721 1.2029C12.0721 1.06958 12.1253 0.941782 12.22 0.847899L12.93 0.147899C13.0239 0.0532428 13.1517 0 13.285 0C13.4183 0 13.5461 0.0532428 13.64 0.147899L19.78 6.2779C19.9207 6.41842 19.9998 6.60905 20 6.8079V7.1879C19.9977 7.38631 19.9189 7.57618 19.78 7.7179L13.64 13.8479C13.5461 13.9426 13.4183 13.9958 13.285 13.9958C13.1517 13.9958 13.0239 13.9426 12.93 13.8479L12.22 13.1379C12.1259 13.0457 12.0729 12.9196 12.0729 12.7879C12.0729 12.6562 12.1259 12.5301 12.22 12.4379L16.67 7.9979H0.5C0.223858 7.9979 0 7.77404 0 7.4979Z" fill="currentColor"></path></svg>